<svg id="Capa_1" data-name="Capa 1" xmlns="http://www.w3.org/2000/svg" viewBox="0 0 1000 1000"><defs><style>.cls-1{fill:#404040;}</style></defs><polygon class="cls-1" points="198.4 473.74 249.92 328.69 214.13 328.69 189.28 406.71 178.95 450.93 168.81 406.68 143.97 328.69 106.89 328.69 158.41 473.74 198.4 473.74"/><path class="cls-1" d="M354,475.89c23.43,0,42.39-12.32,49.47-32.14l.12-.34-26.45-15.33-.12.6c-2.74,13.95-9.92,20.73-21.95,20.73-14.08,0-22.16-10.51-22.16-28.83s8.08-28.83,22.16-28.83c11.86,0,19.25,7,21.95,20.74l.12.59,26.45-15.33-.12-.34c-7.08-19.82-26-32.14-49.47-32.14-31.93,0-53.37,22.23-53.37,55.31S322.1,475.89,354,475.89Z"/><path class="cls-1" d="M423.2,442.1c0,21.47,12.63,33.79,34.65,33.79,15.67,0,26.68-7,31.76-13.51l.14-.19-9.22-26.31-.47.84c-2.94,5.31-8.52,11-15.33,11-6.65,0-9.89-3.66-9.89-11.19V391.75h29.27V367.43H454.84V338.52l-31.64,16.6v12.31H407.49v24.32H423.2Z"/><path class="cls-1" d="M545.54,475.89c32.44,0,54.24-22.23,54.24-55.31s-21.8-55.31-54.24-55.31c-31.79,0-53.15,22.23-53.15,55.31S513.75,475.89,545.54,475.89ZM525.48,414c3.11-9.74,7.38-16.44,12.69-19.92a17.2,17.2,0,0,1,9.58-2.83,23.65,23.65,0,0,1,7.18,1.21c6.47,2.06,10.81,5.79,12.91,11.09,2.34,5.9,1.95,13.83-1.16,23.59S559.33,443.5,554,447c-4.82,3.15-10.53,3.71-17,1.65s-10.63-5.76-12.71-11.11C522,431.59,522.4,423.68,525.48,414Z"/><path class="cls-1" d="M642.24,417.57c0-17.78,10.17-28.4,20-28.4,7.86,0,9,6.33,9,10.11,0,6.09-3.77,13.48-7.41,17.12l-.74.74h31l.12-.2c2.81-4.45,6.1-13.61,6.1-24.76,0-17.1-9-26.91-24.54-26.91-16.19,0-28.53,11.8-33.56,31.78V367.43H610.6V473.74h31.64Z"/><path class="cls-1" d="M829.21,449.14v3.94c0,13.13,8.08,20.66,22.17,20.66h18.51v-25.4h-6.68c-3.81,0-5.16-1.52-5.16-5.81V406.38c0-26.51-15.13-41.11-42.61-41.11a69.62,69.62,0,0,0-50.89,22.09l-.23.26,16,23.18.36-.52c7.66-11,20.14-17.88,32.57-17.88,10.33,0,15.08,3.78,16.31,13.05l-31.94,11.92c-21.33,7.34-30.42,17.05-30.42,32.48,0,16.44,10.54,26.25,28.19,26.25C817,476.1,825.72,460.4,829.21,449.14Zm-21.78-13.95,21.78-9v6.67c0,12.76-8,19.79-22.38,19.79-6.85,0-10.32-2.46-10.32-7.31C796.51,441.25,799.57,438.41,807.43,435.19Z"/><path class="cls-1" d="M722.1,476.32c13.68,0,26.24-5.31,32-13.53l.09-.13-.48-4.86h-1.9l-.13.17c-3.67,4.58-6.55,6.29-10.63,6.29-2.75,0-6-1-6-5.81a21.2,21.2,0,0,1,.7-4.41l24.34-85.53-5.85-3.28-.18.07c-13.38,4.52-35.6,8.34-46.62,9.88l-.29,0-1.5,5.74L724.34,382l-19,70.93a39.7,39.7,0,0,0-1.74,9.8C703.59,471.66,712.9,476.32,722.1,476.32Z"/><path class="cls-1" d="M741.51,359l-.07,1.59.87-1.34c11-17.08,16.71-20.83,33.74-22.34l1-.1-.79-.67c-13-11.08-15.46-17.43-14.58-37.75l.07-1.59-.87,1.34c-11,17.07-16.71,20.83-33.74,22.34l-1,.09.79.68C739.94,332.33,742.39,338.68,741.51,359Z"/><path class="cls-1" d="M258.55,476.34c13.82,0,26.5-5.36,32.3-13.66l.09-.13-.49-4.89h-1.9l-.13.16c-3.71,4.63-6.62,6.35-10.75,6.35-2.77,0-6.08-1-6.08-5.86a21.45,21.45,0,0,1,.72-4.5l24.56-86.34-5.9-3.3-.18.06c-13.57,4.59-36.73,8.54-47.08,10l-.28,0L241.92,380l18.9,1.09-19.2,71.63a39.85,39.85,0,0,0-1.76,9.89C239.86,471.64,249.26,476.34,258.55,476.34Z"/><path class="cls-1" d="M277,359l-.07,1.6.87-1.34c11-17.07,16.71-20.83,33.74-22.34l1-.09-.79-.68c-13-11.08-15.46-17.43-14.58-37.75l.07-1.59-.87,1.34c-11,17.07-16.71,20.83-33.74,22.34l-1,.09.79.68C275.4,332.33,277.85,338.68,277,359Z"/><path class="cls-1" d="M113.9,648.86V503.2H145V648.86Z"/><path class="cls-1" d="M172.07,617.33V566H156.2v-23.7h15.87V529.72l31.09-16.3v28.91h29.57V566H203.16v45.65c0,8.7,4.35,11.74,10.43,11.74,6.74,0,12.61-5.43,15.87-11.3l8.92,25.43c-4.57,5.87-15.44,13.48-31.74,13.48C183.16,651,172.07,637.12,172.07,617.33Z"/><path class="cls-1" d="M245.92,648.86V626l37-40.44L305.7,566l-31.52,1.52H249V542.33h92.17v22.83l-37.61,38.48-24.13,21.3,32.83-1.3h31.09v25.22Z"/><path class="cls-1" d="M352.87,625.16c0-16.09,10.22-25.43,30.44-32.39l32.6-12.18c-1.08-8.91-5.21-13.91-17-13.91-13.48,0-25.87,7.61-33.26,18.26L350,562.33a69.51,69.51,0,0,1,51.09-22.17c27,0,42.61,14.35,42.61,41.09v36.52c0,4.78,1.74,6.3,5.65,6.3h6.31v24.79H437.44c-11.53,0-22-5.22-22-20.44v-7.17c-3.48,13.91-12.83,30-34.57,30C364.39,651.25,352.87,642.33,352.87,625.16Zm39.57,3.26c14.78,0,23-7.39,23-20.43v-7.4l-22.61,9.35c-8.48,3.48-11.3,6.52-11.3,10.65C381.57,625.59,385,628.42,392.44,628.42Z"/><path class="cls-1" d="M449,703.2l-19.57-29.78.66-1.74c27.6-5.65,55.21-16.74,71.52-29.78H481.81c-8.05-23.7-14.79-58.48-19.35-87.17l-16.09-.87,1.3-5c14.79-2.18,32.18-5.66,43.05-9.57l5.65,2.39c4.13,31.31,7.83,56.52,16.3,86.74,12.18-17.61,23.7-45.65,26.74-67.17-7.39-3.48-14.13-5.44-23-7.39v-2.61l15.87-12c17.83,0,30.87,6.52,30.87,17.17,0,23.7-28.91,64.57-64.13,99.79C485.72,669.51,469.63,685.16,449,703.2Z"/><path class="cls-1" d="M570.06,625.16c0-16.09,10.22-25.43,30.43-32.39l32.61-12.18c-1.08-8.91-5.22-13.91-17-13.91-13.48,0-25.87,7.61-33.27,18.26l-15.65-22.61a69.47,69.47,0,0,1,51.09-22.17c27,0,42.61,14.35,42.61,41.09v36.52c0,4.78,1.74,6.3,5.65,6.3h6.3v24.79H654.62c-11.52,0-22-5.22-22-20.44v-7.17c-3.48,13.91-12.83,30-34.57,30C581.58,651.25,570.06,642.33,570.06,625.16Zm39.56,3.26c14.79,0,23-7.39,23-20.43v-7.4l-22.61,9.35c-8.48,3.48-11.31,6.52-11.31,10.65C598.75,625.59,602.23,628.42,609.62,628.42Z"/><path class="cls-1" d="M682,648.86V542.33h31.09V573.2c3.47-17.39,13.69-33,35.65-33,20.22,0,32.61,12.39,32.61,34.35v74.35H750.25V585.38c0-13-3.48-21.09-17.61-21.09-14.78,0-19.56,8.26-19.56,25.65v58.92Z"/><path class="cls-1" d="M790.29,625.16c0-16.09,10.22-25.43,30.43-32.39l32.61-12.18c-1.08-8.91-5.22-13.91-17-13.91-13.48,0-25.87,7.61-33.27,18.26l-15.65-22.61a69.47,69.47,0,0,1,51.09-22.17c27,0,42.61,14.35,42.61,41.09v36.52c0,4.78,1.74,6.3,5.65,6.3h6.3v24.79H874.85c-11.52,0-22-5.22-22-20.44v-7.17c-3.48,13.91-12.83,30-34.57,30C801.81,651.25,790.29,642.33,790.29,625.16Zm39.56,3.26c14.79,0,23-7.39,23-20.43v-7.4l-22.61,9.35c-8.48,3.48-11.31,6.52-11.31,10.65C819,625.59,822.46,628.42,829.85,628.42Z"/></svg>